<svg width="19" height="18" viewBox="0 0 19 18" fill="none" xmlns="http://www.w3.org/2000/svg">
<path fill-rule="evenodd" clip-rule="evenodd" d="M9.5 15.5C13.0899 15.5 16 12.5899 16 9C16 5.41015 13.0899 2.5 9.5 2.5C5.91015 2.5 3 5.41015 3 9C3 12.5899 5.91015 15.5 9.5 15.5ZM6.48797 5.98797C6.80528 5.67068 7.31972 5.67068 7.63703 5.98797L9.5 7.85095L11.363 5.98797C11.6803 5.67068 12.1947 5.67068 12.512 5.98797C12.8293 6.30528 12.8293 6.81972 12.512 7.13703L10.649 9L12.512 10.863C12.8293 11.1803 12.8293 11.6947 12.512 12.012C12.1947 12.3293 11.6803 12.3293 11.363 12.012L9.5 10.149L7.63703 12.012C7.31972 12.3293 6.80528 12.3293 6.48797 12.012C6.17068 11.6947 6.17068 11.1803 6.48797 10.863L8.35095 9L6.48797 7.13703C6.17068 6.81972 6.17068 6.30528 6.48797 5.98797Z" fill="#ADADAD"/>
</svg>
