<svg xmlns="http://www.w3.org/2000/svg" width="19" height="17" viewBox="0 0 19 17" fill="none">
  <path fill-rule="evenodd" clip-rule="evenodd" d="M9.5 15C13.0899 15 16 12.0899 16 8.5C16 4.91015 13.0899 2 9.5 2C5.91015 2 3 4.91015 3 8.5C3 12.0899 5.91015 15 9.5 15ZM6.48797 5.48797C6.80528 5.17068 7.31972 5.17068 7.63703 5.48797L9.5 7.35095L11.363 5.48797C11.6803 5.17068 12.1947 5.17068 12.512 5.48797C12.8293 5.80528 12.8293 6.31972 12.512 6.63703L10.649 8.5L12.512 10.363C12.8293 10.6803 12.8293 11.1947 12.512 11.512C12.1947 11.8293 11.6803 11.8293 11.363 11.512L9.5 9.64905L7.63703 11.512C7.31972 11.8293 6.80528 11.8293 6.48797 11.512C6.17068 11.1947 6.17068 10.6803 6.48797 10.363L8.35095 8.5L6.48797 6.63703C6.17068 6.31972 6.17068 5.80528 6.48797 5.48797Z" fill="#D66AA1"/>
</svg>