<svg xmlns="http://www.w3.org/2000/svg" width="17" height="13" viewBox="0 0 17 13" fill="none">
  <path d="M0.967624 6.71614C0.977623 6.82613 1.02512 7.04238 1.06387 7.15862C1.31886 7.9086 2.01384 8.44608 2.79381 8.49483C3.3313 8.52858 3.80753 8.37358 4.22252 8.02734C4.46251 7.82735 4.6875 7.50361 4.79625 7.19987L4.825 7.12237H5.15874H5.49248L5.49998 7.25612C5.50373 7.34362 5.51373 7.41236 5.52873 7.45236C5.55748 7.52986 5.66497 7.64736 5.73247 7.6786L5.78372 7.7011V8.89107V10.0823L5.66622 10.1285C5.39373 10.236 5.16249 10.4398 5.07249 10.6523C4.98999 10.8423 5.00999 11.0772 5.12374 11.271C5.17624 11.3572 5.31748 11.5022 5.41248 11.5647C5.67247 11.7347 5.95121 11.811 6.3012 11.811C6.73119 11.8097 7.07868 11.681 7.32742 11.4297C7.49991 11.256 7.56241 11.1135 7.56241 10.9035C7.56116 10.5673 7.29992 10.266 6.87368 10.1098L6.78369 10.0773V8.89107V7.7061L6.84368 7.6711C6.95993 7.60486 7.03368 7.49736 7.05993 7.35612C7.07493 7.27487 7.07493 7.27487 7.11368 7.27987C7.37742 7.31362 8.52613 7.36861 9.85859 7.40986C11.1173 7.44986 11.5285 7.46736 12.0723 7.50361C12.9647 7.56486 13.5747 7.66236 13.921 7.7986C14.0335 7.8436 14.1834 7.93735 14.2284 7.99109C14.2834 8.05859 14.2959 8.09609 14.2959 8.19109C14.2959 8.65232 13.8285 9.42105 13.056 10.2323C12.8485 10.4485 12.631 10.6548 12.4648 10.791C12.331 10.8998 12.1748 11.0097 12.151 11.0097C12.1248 11.0097 12.1173 10.931 12.1148 10.6585L12.111 10.3873L11.8273 10.036C11.571 9.71854 11.521 9.66354 11.521 9.69479C11.521 9.69979 11.1448 10.4373 10.6861 11.3347L9.84984 12.9659L9.89484 12.9697C9.93233 12.9722 12.4198 12.8659 13.3272 12.8222C13.471 12.8159 13.6922 12.8059 13.8185 12.8022C13.9435 12.7972 14.046 12.7909 14.046 12.7872C14.046 12.7847 14.0172 12.7459 13.9822 12.7022C13.896 12.5934 13.7085 12.4647 13.0685 12.071L12.8085 11.9122L12.9372 11.8585C13.396 11.666 13.986 11.306 14.7772 10.7348C15.1272 10.4823 15.2372 10.3923 15.4172 10.211C16.1134 9.5123 16.6521 8.47983 16.8559 7.45361C17.0021 6.72114 16.9896 6.03741 16.8196 5.35368C16.7696 5.15619 16.5571 4.52496 16.4871 4.36621C16.2709 3.87623 16.0146 3.50374 15.6334 3.12125C15.2134 2.70002 14.8784 2.45752 13.8397 1.82879C13.661 1.72005 13.4447 1.5863 13.3585 1.53005C13.1047 1.36631 12.796 1.14382 12.796 1.12507C12.796 1.12007 12.826 1.10007 12.8622 1.08007C12.9672 1.02257 13.3985 0.755078 13.6047 0.620083C13.7935 0.496337 13.7935 0.496337 13.9135 0.341342C13.9797 0.255095 14.0372 0.176347 14.041 0.166348C14.0472 0.150098 14.0222 0.147598 13.8572 0.147598C13.751 0.147598 13.4485 0.142598 13.1835 0.135098C12.9185 0.128848 12.4523 0.117599 12.146 0.1101C11.8398 0.103849 11.2098 0.08885 10.7448 0.0776005C10.2798 0.0663509 9.88734 0.0601006 9.87359 0.0626011C9.84984 0.0663509 9.88609 0.138848 10.1948 0.71008C10.3861 1.06382 10.7823 1.7963 11.0748 2.33878L11.606 3.3225L11.8585 2.99751L12.111 2.67127L12.1148 2.39378C12.1173 2.24128 12.1235 2.09628 12.1298 2.07254C12.146 2.00879 12.1973 2.00629 12.3135 2.06504C12.5797 2.19753 13.0222 2.63627 13.5347 3.2725C13.826 3.63374 13.9797 3.84873 14.0435 3.97748C14.2034 4.30746 14.3097 4.6537 14.3109 4.85995C14.3147 5.15244 14.1872 5.28118 13.7947 5.38493C13.496 5.46368 13.2222 5.49118 12.0273 5.56617C10.9973 5.62992 7.37617 5.80992 7.12118 5.80992H7.07618L7.06118 5.70742C7.04993 5.63242 7.03618 5.58742 7.00618 5.53742C6.96368 5.46743 6.87743 5.38868 6.81369 5.36243L6.77744 5.34743L6.78119 4.16122L6.78369 2.97501L6.86243 2.94751C7.33742 2.77251 7.61241 2.41877 7.55866 2.04879C7.48741 1.56505 6.88618 1.20381 6.2087 1.23881C5.21874 1.29131 4.68375 2.08379 5.25249 2.65377C5.30748 2.71002 5.39498 2.78126 5.44873 2.81376C5.53873 2.87001 5.73372 2.95876 5.76747 2.96001C5.77997 2.96001 5.78372 3.2075 5.78372 4.15247V5.34493L5.71747 5.38243C5.56373 5.46868 5.49623 5.60742 5.49623 5.83491V5.93491H5.15999H4.82375L4.80125 5.86866C4.77 5.77117 4.6825 5.58992 4.61751 5.48493C4.36001 5.07244 3.95253 4.7637 3.49004 4.62745C2.79881 4.42621 2.04884 4.6187 1.5401 5.12994C1.12262 5.54867 0.915125 6.12491 0.967624 6.71614ZM1.97134 6.2624C2.10009 5.80492 2.52632 5.49868 2.99006 5.52617C3.1363 5.53617 3.23005 5.55867 3.3563 5.61742C3.94878 5.88991 4.12627 6.64364 3.71754 7.15362C3.39005 7.56236 2.79881 7.64611 2.36383 7.34612C2.15259 7.19987 1.99259 6.95113 1.94634 6.69364C1.92884 6.59239 1.94134 6.3674 1.97134 6.2624Z" fill="#13A4CC"/>
</svg>