<svg width="23" height="22" viewBox="0 0 23 22" fill="none" xmlns="http://www.w3.org/2000/svg">
<g id="vscode-icons:file-type-excel">
<path id="Vector" d="M13.9615 10.5535L6.35156 9.21289V19.1191C6.35165 19.2267 6.37294 19.3332 6.41421 19.4326C6.45547 19.532 6.51591 19.6223 6.59207 19.6984C6.66824 19.7744 6.75863 19.8347 6.85809 19.8758C6.95755 19.9169 7.06413 19.938 7.17175 19.9379H20.303C20.4107 19.9382 20.5175 19.9172 20.6171 19.8762C20.7167 19.8351 20.8073 19.7749 20.8836 19.6988C20.9599 19.6228 21.0204 19.5324 21.0618 19.433C21.1031 19.3335 21.1245 19.2268 21.1246 19.1191V15.4691L13.9615 10.5535Z" fill="#185C37"/>
<path id="Vector_2" d="M13.9615 2.0625H7.17175C7.06413 2.06241 6.95755 2.08352 6.85809 2.12462C6.75863 2.16572 6.66824 2.22601 6.59207 2.30204C6.51591 2.37807 6.45547 2.46836 6.41421 2.56776C6.37294 2.66715 6.35165 2.77369 6.35156 2.88131V6.53125L13.9615 11L17.9909 12.3406L21.1246 11V6.53125L13.9615 2.0625Z" fill="#21A366"/>
<path id="Vector_3" d="M6.35156 6.53125H13.9615V11H6.35156V6.53125Z" fill="#107C41"/>
<path id="Vector_4" opacity="0.1" d="M11.7979 5.6377H6.35156V16.8096H11.7979C12.015 16.8085 12.2228 16.7219 12.3765 16.5687C12.5301 16.4154 12.6172 16.2078 12.6188 15.9908V6.45651C12.6172 6.23949 12.5301 6.03185 12.3765 5.87859C12.2228 5.72532 12.015 5.63877 11.7979 5.6377Z" fill="black"/>
<path id="Vector_5" opacity="0.2" d="M11.3504 6.08398H6.35156V17.2559H11.3504C11.5674 17.2548 11.7753 17.1682 11.9289 17.015C12.0826 16.8617 12.1696 16.6541 12.1712 16.437V6.9028C12.1696 6.68578 12.0826 6.47814 11.9289 6.32488C11.7753 6.17161 11.5674 6.08506 11.3504 6.08398Z" fill="black"/>
<path id="Vector_6" opacity="0.2" d="M11.3504 6.08398H6.35156V16.3621H11.3504C11.5674 16.361 11.7753 16.2745 11.9289 16.1212C12.0826 15.968 12.1696 15.7603 12.1712 15.5433V6.9028C12.1696 6.68578 12.0826 6.47814 11.9289 6.32488C11.7753 6.17161 11.5674 6.08506 11.3504 6.08398Z" fill="black"/>
<path id="Vector_7" opacity="0.2" d="M10.9028 6.08398H6.35156V16.3621H10.9028C11.1198 16.361 11.3277 16.2745 11.4813 16.1212C11.635 15.968 11.7221 15.7603 11.7237 15.5433V6.9028C11.7221 6.68578 11.635 6.47814 11.4813 6.32488C11.3277 6.17161 11.1198 6.08506 10.9028 6.08398Z" fill="black"/>
<path id="Vector_8" d="M2.69587 6.08399H10.9032C11.1207 6.0838 11.3292 6.16995 11.4832 6.32348C11.6371 6.47702 11.7238 6.68539 11.7241 6.9028V15.0964C11.7238 15.3138 11.6371 15.5222 11.4832 15.6757C11.3292 15.8293 11.1207 15.9154 10.9032 15.9152H2.69587C2.5882 15.9154 2.48154 15.8944 2.382 15.8533C2.28246 15.8123 2.19199 15.752 2.11576 15.6759C2.03952 15.5999 1.97902 15.5096 1.93771 15.4101C1.8964 15.3107 1.87509 15.2041 1.875 15.0964V6.9028C1.87509 6.79512 1.8964 6.68852 1.93771 6.58908C1.97902 6.48965 2.03952 6.39932 2.11576 6.32328C2.19199 6.24724 2.28246 6.18697 2.382 6.14591C2.48154 6.10485 2.5882 6.0838 2.69587 6.08399Z" fill="url(#paint0_linear_874_22905)"/>
<path id="Vector_9" d="M4.41797 13.6623L6.14428 10.992L4.56303 8.33691H5.83284L6.69566 10.0371C6.77541 10.198 6.83316 10.3176 6.85928 10.3974H6.87097C6.92734 10.2681 6.98716 10.1437 7.04972 10.022L7.97234 8.33966H9.14109L7.51928 10.9797L9.18234 13.6644H7.93866L6.94178 11.8005C6.89549 11.7204 6.85616 11.6365 6.82422 11.5496H6.80772C6.77865 11.6342 6.73989 11.7152 6.69222 11.7909L5.66578 13.6623H4.41797Z" fill="white"/>
<path id="Vector_10" d="M20.3051 2.0625H13.9629V6.53125H21.126V2.88131C21.1259 2.77364 21.1046 2.66703 21.0632 2.5676C21.0219 2.46816 20.9614 2.37784 20.8852 2.3018C20.809 2.22575 20.7185 2.16548 20.619 2.12442C20.5194 2.08336 20.4128 2.06232 20.3051 2.0625Z" fill="#33C481"/>
<path id="Vector_11" d="M13.9629 11H21.126V15.4688H13.9629V11Z" fill="#107C41"/>
</g>
<defs>
<linearGradient id="paint0_linear_874_22905" x1="3.58962" y1="5.44049" x2="10.0095" y2="16.5587" gradientUnits="userSpaceOnUse">
<stop stop-color="#18884F"/>
<stop offset="0.5" stop-color="#117E43"/>
<stop offset="1" stop-color="#0B6631"/>
</linearGradient>
</defs>
</svg>
