<svg xmlns="http://www.w3.org/2000/svg" width="25" height="25" viewBox="0 0 25 25" fill="none">
  <path fill-rule="evenodd" clip-rule="evenodd" d="M12.5 5C8.35786 5 5 8.35786 5 12.5C5 14.8287 6.06045 16.9092 7.72758 18.286L8 18.5109V20H12.5C16.6421 20 20 16.6421 20 12.5C20 8.35786 16.6421 5 12.5 5ZM3.5 12.5C3.5 7.52944 7.52944 3.5 12.5 3.5C17.4706 3.5 21.5 7.52944 21.5 12.5C21.5 17.4706 17.4706 21.5 12.5 21.5H6.5V19.2083C4.65984 17.5613 3.5 15.1658 3.5 12.5ZM13.25 15.5V17H11.75V15.5H13.25ZM11 10.9318C11 10.1626 11.6497 9.5 12.5 9.5C13.3503 9.5 14 10.1626 14 10.9318C14 11.239 13.8151 11.6031 13.4076 12.0159C13.0126 12.4161 12.5104 12.7593 12.0928 13.0292L11.75 13.2509V14.75H13.25V14.0623C13.6312 13.803 14.0828 13.4671 14.4752 13.0696C14.9818 12.5564 15.5 11.8296 15.5 10.9318C15.5 9.29103 14.1349 8 12.5 8C10.8651 8 9.5 9.29103 9.5 10.9318H11Z" fill="#384C4C"/>
</svg>