<svg xmlns="http://www.w3.org/2000/svg" width="36" height="30" viewBox="0 0 36 30" fill="none">
  <path fill-rule="evenodd" clip-rule="evenodd" d="M22.5 4.62305H13.5V7.39702H9V13.4814L5.27948 14.093L7.93247 20.6346L10.067 20.0498L8.22001 15.4956L16.875 14.0728V18.4929H19.125V14.0729L27.7795 15.4956L25.9325 20.0498L28.067 20.6346L30.72 14.093L27 13.4815V7.39702H22.5V4.62305ZM20.25 7.39702V6.47236H15.75V7.39702H20.25ZM24.75 9.24633V13.1116L17.9997 12.002L11.25 13.1115V9.24633H24.75ZM4.50016 23.1162C4.79936 24.0076 4.79929 24.0076 4.79923 24.0076L4.80089 24.0072L4.80823 24.0056L4.83985 23.9985C4.8683 23.9922 4.91122 23.9827 4.9673 23.9706C5.07949 23.9463 5.24413 23.9112 5.45059 23.869C5.86396 23.7845 6.44259 23.6718 7.1019 23.5592C8.44209 23.3303 10.0354 23.1162 11.2502 23.1162C12.4189 23.1162 13.3073 23.3142 14.326 23.5452L14.3562 23.5521L14.3562 23.5521C15.3689 23.7818 16.5113 24.0409 18.0002 24.0409C19.489 24.0409 20.6315 23.7818 21.6441 23.5521L21.6441 23.5521L21.6744 23.5452C22.693 23.3142 23.5815 23.1162 24.7502 23.1162C25.9649 23.1162 27.5582 23.3303 28.8984 23.5592C29.5577 23.6718 30.1364 23.7845 30.5497 23.869C30.7562 23.9112 30.9208 23.9463 31.033 23.9706C31.0891 23.9827 31.132 23.9922 31.1605 23.9985L31.1921 24.0056L31.1994 24.0072L31.2011 24.0076C31.201 24.0076 31.201 24.0076 31.5002 23.1162C31.7994 22.2248 31.7993 22.2248 31.7991 22.2248L31.7847 22.2215L31.747 22.2131C31.7144 22.2059 31.6671 22.1955 31.6065 22.1823C31.4852 22.1561 31.3104 22.1189 31.0928 22.0744C30.6581 21.9855 30.0504 21.8671 29.3562 21.7486C27.9895 21.5151 26.2078 21.2669 24.7502 21.2669C23.2613 21.2669 22.1188 21.526 21.1062 21.7557L21.076 21.7625C20.0573 21.9935 19.1689 22.1915 18.0002 22.1915C16.8315 22.1915 15.943 21.9935 14.9244 21.7625L14.8941 21.7557C13.8815 21.526 12.739 21.2669 11.2502 21.2669C9.79249 21.2669 8.01083 21.5151 6.64412 21.7486C5.94997 21.8671 5.34218 21.9855 4.90749 22.0744C4.68992 22.1189 4.51512 22.1561 4.39387 22.1823C4.33323 22.1955 4.28595 22.2059 4.25336 22.2131L4.21564 22.2215L4.20536 22.2238L4.20118 22.2248C4.20106 22.2248 4.20095 22.2248 4.50016 23.1162Z" fill="#13A4CC"/>
</svg>