<svg xmlns="http://www.w3.org/2000/svg" width="43" height="43" viewBox="0 0 43 43" fill="none">
  <path fill-rule="evenodd" clip-rule="evenodd" d="M26.8765 6.71875H16.1265V10.75H10.7515V19.5918L6.30729 20.4807L9.47614 29.9872L12.0257 29.1374L9.81958 22.5189L20.1577 20.4513V26.875H22.8452V20.4515L33.1823 22.5189L30.9761 29.1374L33.5257 29.9872L36.6946 20.4807L32.2515 19.592V10.75H26.8765V6.71875ZM24.189 10.75V9.40625H18.814V10.75H24.189ZM29.564 13.4375V19.0545L21.5009 17.4419L13.439 19.0543V13.4375H29.564ZM5.37665 33.5938C5.73404 34.8891 5.73395 34.8891 5.73388 34.8891L5.73586 34.8886L5.74463 34.8862L5.7824 34.876C5.81637 34.8668 5.86765 34.853 5.93463 34.8354C6.06863 34.8001 6.26528 34.7491 6.51189 34.6878C7.00564 34.565 7.69678 34.4012 8.48429 34.2375C10.0851 33.9049 11.9882 33.5938 13.4392 33.5938C14.8351 33.5938 15.8963 33.8815 17.113 34.2172L17.1491 34.2272L17.1491 34.2272C18.3587 34.561 19.7233 34.9375 21.5017 34.9375C23.28 34.9375 24.6446 34.561 25.8542 34.2272L25.8542 34.2272L25.8903 34.2172C27.107 33.8815 28.1682 33.5938 29.5642 33.5938C31.0151 33.5938 32.9182 33.9049 34.519 34.2375C35.3065 34.4012 35.9977 34.565 36.4914 34.6878C36.738 34.7491 36.9347 34.8001 37.0687 34.8354C37.1357 34.853 37.1869 34.8668 37.2209 34.876L37.2587 34.8862L37.2675 34.8886L37.2694 34.8891C37.2694 34.8891 37.2693 34.8891 37.6267 33.5938C37.984 32.2984 37.9839 32.2984 37.9838 32.2983L37.9665 32.2936L37.9215 32.2814C37.8825 32.2709 37.826 32.2557 37.7536 32.2366C37.6088 32.1985 37.4 32.1444 37.1401 32.0798C36.6209 31.9506 35.8949 31.7785 35.0658 31.6062C33.4334 31.267 31.3053 30.9062 29.5642 30.9062C27.7858 30.9062 26.4212 31.2828 25.2116 31.6166L25.1755 31.6265C23.9588 31.9622 22.8976 32.25 21.5017 32.25C20.1057 32.25 19.0445 31.9622 17.8278 31.6265L17.7917 31.6166C16.5821 31.2828 15.2175 30.9062 13.4392 30.9062C11.6981 30.9062 9.56995 31.267 7.9375 31.6062C7.10838 31.7785 6.3824 31.9506 5.86319 32.0798C5.60331 32.1444 5.39453 32.1985 5.2497 32.2366C5.17727 32.2557 5.12079 32.2709 5.08186 32.2814L5.03682 32.2936L5.02453 32.2969L5.01954 32.2983C5.01939 32.2984 5.01927 32.2984 5.37665 33.5938Z" fill="white"/>
</svg>